<svg width="24" height="24" viewBox="0 0 24 24" fill="none" xmlns="http://www.w3.org/2000/svg">
<path d="M20.5442 10.4298C21.1519 11.4633 21.1519 12.7366 20.5442 13.7702L17.7453 18.5297C17.1375 19.5632 16.0144 20.2 14.7988 20.2H9.20113C7.98562 20.2 6.86244 19.5632 6.25468 18.5297L3.45582 13.7702C2.84806 12.7366 2.84806 11.4633 3.45582 10.4298L6.25468 5.67018C6.86244 4.63667 7.98562 4 9.20113 4H14.7988C16.0144 4 17.1375 4.63667 17.7453 5.67018L20.5442 10.4298Z" fill="#4487F9"/>
<path d="M17.4 16.7165L15.431 14.6451C16.1053 13.8052 16.4991 12.7426 16.4991 11.6237C16.4991 8.93783 14.3062 6.7 11.5496 6.7C8.7929 6.7 6.6 8.88148 6.6 11.6237C6.6 14.3661 8.7929 16.5475 11.5496 16.5475C12.6743 16.5475 13.7424 16.1557 14.5867 15.4849L16.4991 17.5L17.4 16.7165ZM11.6062 15.3722C9.52387 15.3722 7.83806 13.6926 7.83806 11.6237C7.83806 9.55497 9.52657 7.87526 11.6062 7.87526C13.6858 7.87526 15.3744 9.55497 15.3744 11.6237C15.3744 13.6926 13.6292 15.3722 11.6062 15.3722Z" fill="white"/>
<path d="M12 10.6751C12 10.4679 11.7985 10.3 11.55 10.3C11.3015 10.3 11.1 10.4679 11.1 10.6751V13.5249C11.1 13.732 11.3015 13.9 11.55 13.9C11.7985 13.9 12 13.732 12 13.5249V10.6751Z" fill="white"/>
<path d="M9.5 13.4068C9.5 13.5109 9.55267 13.6108 9.64644 13.6843C9.96143 13.9315 10.5 13.7564 10.5 13.4068V12.3924C10.5 12.1757 10.2761 12 9.99999 12C9.72385 12 9.5 12.1757 9.5 12.3924V13.4068Z" fill="white"/>
<path d="M12.5 13.5068C12.5 13.6109 12.5474 13.7108 12.6318 13.7843C12.9153 14.0315 13.4 13.8564 13.4 13.5068V12.4924C13.4 12.2757 13.1985 12.1 12.95 12.1C12.7015 12.1 12.5 12.2757 12.5 12.4924V13.5068Z" fill="white"/>
</svg>
