<svg width="12" height="12" viewBox="0 0 12 12" fill="none" xmlns="http://www.w3.org/2000/svg">
<g clip-path="url(#clip0_0_208)">
<path d="M7.46566 6.16286C7.4247 6.11852 7.40195 6.06037 7.40195 6C7.40195 5.93963 7.4247 5.88148 7.46566 5.83714L11.7514 1.55143C11.8385 1.46676 11.9077 1.36548 11.955 1.25359C12.0022 1.1417 12.0266 1.02147 12.0266 0.9C12.0266 0.778534 12.0022 0.658301 11.955 0.546411C11.9077 0.43452 11.8385 0.333244 11.7514 0.248571C11.6667 0.161482 11.5654 0.0922557 11.4535 0.0449847C11.3417 -0.00228626 11.2214 -0.0266418 11.1 -0.0266418C10.9785 -0.0266418 10.8583 -0.00228626 10.7464 0.0449847C10.6345 0.0922557 10.5332 0.161482 10.4485 0.248571L6.16281 4.53429C6.11847 4.57525 6.06032 4.598 5.99995 4.598C5.93958 4.598 5.88143 4.57525 5.83709 4.53429L1.55138 0.248571C1.37795 0.0839248 1.14661 -0.00571237 0.907526 -0.000898577C0.668441 0.00391521 0.440894 0.102792 0.274236 0.274285C0.187148 0.358959 0.117921 0.460234 0.07065 0.572125C0.023379 0.684015 -0.000976563 0.804248 -0.000976562 0.925714C-0.000976563 1.04718 0.023379 1.16741 0.07065 1.2793C0.117921 1.39119 0.187148 1.49247 0.274236 1.57714L4.55995 5.86286C4.60091 5.9072 4.62366 5.96535 4.62366 6.02571C4.62366 6.08608 4.60091 6.14423 4.55995 6.18857L0.274236 10.4743C0.187148 10.559 0.117921 10.6602 0.07065 10.7721C0.023379 10.884 -0.000976562 11.0042 -0.000976562 11.1257C-0.000976563 11.2472 0.023379 11.3674 0.07065 11.4793C0.117921 11.5912 0.187148 11.6925 0.274236 11.7771C0.35891 11.8642 0.460185 11.9335 0.572076 11.9807C0.683966 12.028 0.804199 12.0524 0.925665 12.0524C1.04713 12.0524 1.16736 12.028 1.27925 11.9807C1.39114 11.9335 1.49242 11.8642 1.57709 11.7771L5.86281 7.49143C5.90715 7.45047 5.9653 7.42772 6.02567 7.42772C6.08603 7.42772 6.14418 7.45047 6.18852 7.49143L10.4742 11.7771C10.647 11.9499 10.8813 12.047 11.1257 12.047C11.37 12.047 11.6043 11.9499 11.7771 11.7771C11.9499 11.6044 12.0469 11.37 12.0469 11.1257C12.0469 10.8814 11.9499 10.6471 11.7771 10.4743L7.46566 6.16286Z" fill="#B3B3B3"/>
</g>
<defs>
<clipPath id="clip0_0_208">
<rect width="12" height="12" fill="white"/>
</clipPath>
</defs>
</svg>
