<svg width="24" height="24" viewBox="0 0 24 24" fill="none" xmlns="http://www.w3.org/2000/svg">
<path d="M17.634 13.866C17.634 14.604 17.238 14.982 16.5 14.982H7.5C6.762 14.964 6.366 14.604 6.366 13.866C6.366 13.128 6.762 12.75 7.5 12.75H16.5C17.238 12.768 17.634 13.128 17.634 13.866ZM16.5 15.558H7.5C6.762 15.576 6.366 15.936 6.366 16.674C6.366 17.412 6.762 17.79 7.5 17.79H16.5C17.238 17.772 17.634 17.412 17.634 16.674C17.634 15.936 17.238 15.576 16.5 15.558ZM19.308 9.36601C18.57 9.38401 18.174 9.74401 18.174 10.482V16.674C18.174 17.412 18.57 17.79 19.308 17.79C20.406 17.754 21 16.656 21 14.424V11.616C21 10.122 20.406 9.40201 19.308 9.36601ZM4.692 9.36601C3.594 9.40201 3 10.122 3 11.616V14.424C3 16.656 3.594 17.754 4.692 17.79C5.43 17.772 5.808 17.412 5.808 16.674V10.5C5.808 9.74401 5.412 9.38401 4.692 9.36601ZM19.308 8.80801C19.308 6.93601 18.318 6.03601 16.5 6.00001H7.5C5.664 6.03601 4.692 6.95401 4.692 8.80801C5.79 8.82601 6.384 9.38401 6.384 10.5C6.384 11.616 6.978 12.174 8.076 12.192H15.96C17.058 12.174 17.652 11.616 17.652 10.5C17.634 9.38401 18.21 8.82601 19.308 8.80801Z" fill="#E32829"/>
</svg>
