<svg width="24" height="24" viewBox="0 0 24 24" fill="none" xmlns="http://www.w3.org/2000/svg">
<path d="M3 6.28865C3 4.47238 4.47239 3 6.28866 3H17.7114C19.5277 3 21 4.47238 21 6.28865V17.7113C21 19.5276 19.5277 21 17.7114 21H6.28866C4.47239 21 3 19.5276 3 17.7113V6.28865Z" fill="#5D9E7E"/>
<path fill-rule="evenodd" clip-rule="evenodd" d="M12.8036 11.1964H16.0179V7.98214H12.8036V11.1964ZM11.1964 11.0928V7.98214H7.98214V11.0928H11.1964ZM7.98214 12.7863L11.1964 12.8036V16.0179H7.98214V12.7863ZM6.375 8.06855C6.375 7.13323 7.00461 6.375 7.78126 6.375H16.2188C16.9954 6.375 17.625 7.13323 17.625 8.06855V12V15.9314C17.625 16.8667 16.9954 17.625 16.2188 17.625H7.78126C7.00461 17.625 6.375 16.8667 6.375 15.9314V11.9395V8.06855ZM12.8036 15.9314V12.7863H16.0179V15.9314H12.8036Z" fill="white"/>
</svg>
