<svg width="17" height="24" viewBox="0 0 17 24" fill="none" xmlns="http://www.w3.org/2000/svg">
<path d="M20.2011 11.4963L12.4555 3.75079L11.7048 3L5.87424 8.83052L3.20845 11.4963C3.07497 11.6299 3 11.8111 3 12C3 12.1889 3.07497 12.37 3.20845 12.5037L8.53527 17.8305L11.7048 21L17.5353 15.1695L17.6256 15.0792L20.2011 12.5037C20.3345 12.37 20.4095 12.1889 20.4095 12C20.4095 11.8111 20.3345 11.6299 20.2011 11.4963ZM11.7048 14.661L9.04372 12L11.7048 9.33896L14.3658 12L11.7048 14.661Z" fill="#2684FF"/>
<path d="M11.7048 9.33896C10.8678 8.50193 10.3961 7.36775 10.3925 6.18409C10.389 5.00042 10.8539 3.86343 11.6858 3.02138L5.86237 8.84239L9.03185 12.0119L11.7048 9.33896Z" fill="url(#paint0_linear_0_1184)"/>
<path d="M14.3729 11.9929L11.7047 14.661C12.1211 15.0772 12.4514 15.5713 12.6768 16.1151C12.9021 16.6589 13.0181 17.2418 13.0181 17.8305C13.0181 18.4192 12.9021 19.0021 12.6768 19.5459C12.4514 20.0898 12.1211 20.5839 11.7047 21L17.5424 15.1624L14.3729 11.9929Z" fill="url(#paint1_linear_0_1184)"/>
<defs>
<linearGradient id="paint0_linear_0_1184" x1="11.2296" y1="6.64704" x2="7.51363" y2="10.363" gradientUnits="userSpaceOnUse">
<stop offset="0.18" stop-color="#0052CC"/>
<stop offset="1" stop-color="#2684FF"/>
</linearGradient>
<linearGradient id="paint1_linear_0_1184" x1="238.089" y1="554.943" x2="366.43" y2="471.763" gradientUnits="userSpaceOnUse">
<stop offset="0.18" stop-color="#0052CC"/>
<stop offset="1" stop-color="#2684FF"/>
</linearGradient>
</defs>
</svg>
