<svg width="24" height="24" viewBox="0 0 24 24" fill="none" xmlns="http://www.w3.org/2000/svg">
<path d="M16.7607 16.7886C16.8791 15.7432 16.8396 15.5854 17.6286 15.7629L17.8259 15.7826C18.4176 15.8023 19.2066 15.684 19.6603 15.467C20.6466 15.0133 21.2383 14.2441 20.2521 14.4413C18.0231 14.895 17.8653 14.1454 17.8653 14.1454C20.2126 10.6541 21.1989 6.21599 20.3507 5.13111C18.0626 2.19209 14.0584 3.57284 13.9795 3.61229H13.9598C13.5258 3.51366 13.0327 3.47421 12.4804 3.45449C11.4744 3.43476 10.7052 3.71091 10.1331 4.16459C10.1331 4.16459 2.99269 1.22556 3.30829 7.87289C3.38719 9.29309 5.33996 18.5836 7.66751 15.7629C8.51569 14.7372 9.34414 13.8693 9.34414 13.8693C9.75836 14.1454 10.2515 14.2835 10.7643 14.2243L10.8038 14.1849C10.7841 14.3032 10.8038 14.4413 10.8235 14.5794C10.2318 15.25 10.3896 15.3684 9.20606 15.6248C7.98311 15.8812 8.71294 16.3152 9.16661 16.4335C9.73864 16.5716 11.0405 16.7689 11.9281 15.5459L11.8887 15.684C12.1254 15.8812 12.1056 17.045 12.1451 17.8735C12.1845 18.7019 12.2437 19.4909 12.4015 19.9446C12.579 20.3983 12.7763 21.5818 14.3543 21.2464C15.6561 20.99 16.6818 20.5758 16.7607 16.7886Z" fill="black"/>
<path d="M20.2718 14.4413C18.0429 14.895 17.8851 14.1454 17.8851 14.1454C20.2323 10.6541 21.2186 6.21599 20.3704 5.13111C18.0626 2.19209 14.0584 3.57284 13.9795 3.61229H13.9598C13.5258 3.51366 13.0327 3.47421 12.4804 3.45449C11.4744 3.43476 10.7052 3.71091 10.1331 4.16459C10.1331 4.16459 2.99269 1.22556 3.30829 7.87289C3.38719 9.29309 5.33996 18.5836 7.66751 15.7629C8.51569 14.7372 9.34414 13.8693 9.34414 13.8693C9.75836 14.1454 10.2515 14.2835 10.7643 14.2243L10.8038 14.1849C10.7841 14.3032 10.8038 14.4413 10.8235 14.5794C10.2318 15.25 10.3896 15.3684 9.20606 15.6248C7.98311 15.8812 8.71294 16.3152 9.16661 16.4335C9.73864 16.5716 11.0405 16.7689 11.9281 15.5459L11.8887 15.684C12.1254 15.8812 12.2832 16.9069 12.2634 17.8537C12.2437 18.8005 12.224 19.4515 12.4015 19.9446C12.579 20.4574 12.7763 21.5818 14.3543 21.2464C15.6759 20.9703 16.3662 20.2207 16.4451 18.9978C16.5043 18.1299 16.6621 18.2482 16.6818 17.479L16.8002 17.1042C16.9383 15.9207 16.8199 15.5459 17.6286 15.7234L17.8259 15.7432C18.4176 15.7629 19.2066 15.6445 19.6603 15.4276C20.6663 15.0133 21.258 14.2441 20.2718 14.4413Z" fill="#336791"/>
<path d="M13.9006 21.6409C12.579 21.6409 12.1451 20.5955 11.9873 20.1615C11.7309 19.5303 11.6717 17.1633 11.7309 15.1119C11.7309 14.9541 11.8689 14.8358 12.007 14.8358C12.1648 14.8358 12.2832 14.9738 12.2832 15.1119C12.224 17.4197 12.3226 19.4909 12.5001 19.9445C12.7763 20.6546 13.2102 21.2858 14.4332 21.0097C15.6167 20.7533 16.0309 20.339 16.2282 19.195C16.386 18.3271 16.6818 15.8417 16.7213 15.3486C16.741 15.1908 16.8594 15.0922 17.0172 15.0922C17.175 15.1119 17.2736 15.2303 17.2736 15.3881C17.2341 15.9009 16.9383 18.3665 16.7805 19.2739C16.5438 20.6349 15.952 21.2464 14.5515 21.5423C14.3148 21.6212 14.0979 21.6409 13.9006 21.6409Z" fill="white"/>
<path d="M6.76012 16.5519C6.62204 16.5519 6.52342 16.5321 6.40507 16.4927C5.53717 16.1968 4.72844 14.8161 3.9789 12.3307C3.40687 10.4568 3.05182 8.50406 3.01237 7.85313C2.91375 5.95953 3.40687 4.61823 4.47202 3.86868C5.35964 3.23748 6.60232 3.04023 8.16059 3.29666C9.30465 3.47418 10.1725 3.82923 10.212 3.84896C10.3501 3.90813 10.429 4.06593 10.3698 4.20401C10.3106 4.34208 10.1528 4.42098 10.0147 4.36181C9.97529 4.36181 6.62205 3.02051 4.78762 4.32236C3.9 4.95356 3.48577 6.13706 3.56467 7.83341C3.58439 8.36598 3.93944 10.2793 4.51147 12.1729C5.18212 14.3624 5.93167 15.7431 6.60232 15.9601C6.70094 15.9996 7.01654 16.0982 7.45049 15.5656C8.29867 14.5399 9.08767 13.7312 9.08767 13.7115C9.18629 13.5931 9.36382 13.5931 9.48217 13.7115C9.60052 13.8101 9.60052 13.9876 9.48217 14.106C9.48217 14.106 8.71289 14.9147 7.86472 15.9207C7.47022 16.4138 7.07572 16.5519 6.76012 16.5519Z" fill="white"/>
<path d="M17.885 14.4018C17.8258 14.4018 17.7864 14.3821 17.7272 14.3624C17.6089 14.2835 17.5694 14.106 17.6483 13.9876C20.0153 10.4568 20.8635 6.21597 20.1534 5.30862C19.2658 4.16457 18.0034 3.57282 16.4056 3.53337C15.2221 3.51364 14.2753 3.80952 14.1175 3.86869C14.0978 3.86869 14.0978 3.88842 14.0781 3.88842C13.9203 3.94759 13.7822 3.84897 13.7428 3.75034C13.6836 3.63199 13.723 3.47419 13.8611 3.39529C13.9597 3.33612 15.0446 2.98107 16.3465 3.00079C18.1217 3.02052 19.6011 3.71089 20.6071 4.99302C20.8635 5.30862 20.9818 5.84119 20.9621 6.53157C20.9424 7.18249 20.824 7.97149 20.6071 8.81967C20.1337 10.6738 19.2263 12.6858 18.1217 14.3032C18.0428 14.3624 17.9639 14.4018 17.885 14.4018Z" fill="white"/>
<path d="M18.0034 16.0193C17.5892 16.0193 17.2341 15.9601 16.9974 15.8221C16.7607 15.684 16.7213 15.4867 16.7213 15.3881C16.6621 14.323 17.2341 14.1257 17.5497 14.0271C17.5103 13.9679 17.4511 13.9087 17.4116 13.8298C17.2341 13.6129 16.9974 13.2973 16.8002 12.8436C16.7804 12.7647 16.6818 12.6069 16.5832 12.4294C16.0112 11.4037 14.8079 9.25363 15.5772 8.14903C15.9323 7.63618 16.6424 7.43893 17.6681 7.53755C17.53 7.12333 17.1947 6.37378 16.5635 5.62423C15.7942 4.79578 14.4923 3.75035 12.4607 3.7109C11.435 3.69118 10.5868 4.00678 9.93586 4.6577C8.51566 6.09763 8.55511 8.72105 8.55511 8.74078C8.55511 8.89858 8.43676 9.01693 8.27896 9.01693C8.12116 9.01693 8.00281 8.89858 8.00281 8.74078C8.00281 8.62243 7.94364 5.86093 9.54136 4.2632C10.2909 3.51365 11.2772 3.13888 12.4607 3.1586C14.6699 3.19805 16.1098 4.32238 16.9185 5.26918C17.8061 6.29488 18.2204 7.4192 18.2598 7.79398C18.2795 8.08985 18.0626 8.14903 18.0231 8.16875H17.9245C16.6621 7.9715 16.1887 8.22793 15.9914 8.50408C15.4194 9.33253 16.5437 11.3445 17.0171 12.1927C17.1355 12.4096 17.2341 12.5674 17.2736 12.6661C17.4314 13.0408 17.6286 13.2973 17.8061 13.5142C17.9442 13.6918 18.0823 13.8496 18.1217 14.0468C18.1415 14.0863 18.4571 14.5005 20.1731 14.1454C20.6268 14.0468 20.903 14.1257 20.9819 14.3821C21.1397 14.8753 20.2323 15.4473 19.7392 15.684C19.325 15.901 18.6149 16.0193 18.0034 16.0193ZM17.2736 15.3487C17.3327 15.4078 17.6286 15.4867 18.1809 15.467C18.6938 15.4473 19.2263 15.3289 19.5419 15.1909C19.9167 15.0133 20.1731 14.8358 20.3309 14.678C20.3309 14.678 20.3309 14.678 20.3112 14.678C19.1869 14.9147 18.3782 14.8753 17.9245 14.5794C17.9048 14.5597 17.8653 14.5399 17.8456 14.5202C17.8061 14.5399 17.7667 14.5399 17.7272 14.5597C17.4708 14.6386 17.2341 14.6977 17.2736 15.3487Z" fill="white"/>
<path d="M9.95559 16.8083C9.67944 16.8083 9.38356 16.7688 9.06796 16.6899C8.98906 16.6702 8.21979 16.4532 8.21979 15.9798C8.21979 15.5261 8.87071 15.3881 9.10741 15.3486C9.95559 15.1711 10.0148 15.1119 10.2712 14.7766C10.3501 14.678 10.4487 14.5596 10.5868 14.4018C11.0207 13.9087 11.4547 14.0862 11.6322 14.1454C11.9084 14.2637 12.1451 14.5399 12.2437 14.8752C12.3226 15.1711 12.2831 15.467 12.1253 15.7037C11.5928 16.4335 10.8432 16.8083 9.95559 16.8083ZM8.83126 15.9995C8.91016 16.0587 9.04824 16.1179 9.20604 16.1573C9.93586 16.3349 10.9616 16.3546 11.6717 15.3683C11.7506 15.25 11.7308 15.0922 11.7111 15.0133C11.6717 14.8555 11.5533 14.6977 11.4152 14.6385C11.2574 14.5793 11.1785 14.5399 11.001 14.7371C10.8827 14.8752 10.784 14.9936 10.7051 15.0725C10.3698 15.5064 10.212 15.6445 9.20604 15.8417C9.02851 15.9206 8.91016 15.9798 8.83126 15.9995Z" fill="white"/>
<path d="M10.7644 14.8358C10.6263 14.8358 10.5079 14.7372 10.4882 14.5991C10.4882 14.5596 10.4882 14.5202 10.4685 14.4807C9.81757 14.461 9.18637 14.1849 8.71297 13.6917C8.1015 13.0605 7.82535 12.1729 7.96342 11.2853C8.1015 10.3188 8.04232 9.47059 8.0226 9.01692C8.0226 8.89857 8.00287 8.79994 8.00287 8.74077C8.00287 8.66187 8.00287 8.42517 8.7327 8.07012C8.98912 7.93204 9.50197 7.71507 10.0543 7.65589C10.9813 7.55727 11.6125 7.97149 11.7901 8.83939C12.2832 11.1275 11.8295 12.1335 11.4942 12.8633C11.435 13.0014 11.3758 13.1197 11.3364 13.2578L11.2969 13.3761C11.1194 13.8495 10.9813 14.244 11.0208 14.5399C11.0405 14.6977 10.9419 14.8358 10.7841 14.8555C10.7841 14.8358 10.7841 14.8358 10.7644 14.8358ZM8.5749 8.81967C8.5749 8.85912 8.5749 8.91829 8.5749 8.99719C8.59462 9.47059 8.6538 10.3582 8.51572 11.3839C8.4171 12.1137 8.63407 12.8238 9.1272 13.3367C9.50197 13.7312 10.0148 13.9679 10.5277 13.9679C10.5868 13.7312 10.6855 13.455 10.7841 13.1789L10.8235 13.0605C10.8827 12.9225 10.9419 12.7844 11.0011 12.6266C11.3167 11.9165 11.7112 11.0486 11.2575 8.93802C11.1786 8.52379 10.9616 8.28709 10.6066 8.20819C9.87675 8.05039 8.79187 8.62242 8.5749 8.81967Z" fill="white"/>
<path d="M10.0937 8.70133C10.074 8.79996 10.2515 9.03666 10.4882 9.05638C10.7249 9.09583 10.9222 8.89858 10.9222 8.81968C10.9419 8.72106 10.7644 8.62243 10.5277 8.60271C10.3107 8.56326 10.0937 8.62243 10.0937 8.70133Z" fill="white"/>
<path d="M10.5474 9.15498C10.5276 9.15498 10.5079 9.15498 10.4882 9.15498C10.3501 9.13526 10.1923 9.03663 10.0937 8.91828C10.0542 8.87883 9.99506 8.78021 10.0148 8.70131C10.0148 8.66186 10.0345 8.62241 10.0937 8.58296C10.1923 8.50406 10.3698 8.48433 10.5671 8.52378C10.8038 8.56323 11.0602 8.68158 11.0405 8.85911C11.001 8.97746 10.7841 9.15498 10.5474 9.15498ZM10.1923 8.72103C10.212 8.78021 10.3304 8.95773 10.5079 8.97746C10.6854 8.99718 10.8235 8.85911 10.8432 8.81966C10.8235 8.79993 10.7249 8.72103 10.5276 8.70131C10.3304 8.66186 10.212 8.70131 10.1923 8.72103Z" fill="white"/>
<path d="M17.1552 8.52382C17.1749 8.62244 16.9974 8.85914 16.7607 8.87887C16.524 8.91832 16.3268 8.72107 16.3268 8.64217C16.307 8.54354 16.4846 8.44492 16.7213 8.42519C16.9382 8.38574 17.1355 8.42519 17.1552 8.52382Z" fill="white"/>
<path d="M16.7015 8.93803C16.4648 8.93803 16.2873 8.76051 16.2676 8.64216C16.2479 8.50408 16.4648 8.40546 16.7015 8.36601C16.9382 8.32656 17.1749 8.36601 17.1947 8.50408C17.1947 8.56326 17.1552 8.66188 17.0763 8.74078C17.0171 8.79996 16.9185 8.89858 16.7607 8.91831C16.741 8.93803 16.7213 8.93803 16.7015 8.93803ZM16.8593 8.44491C16.8199 8.44491 16.7804 8.44491 16.7213 8.46463C16.4846 8.50408 16.3662 8.60271 16.3662 8.64216C16.3662 8.70133 16.5437 8.87886 16.7607 8.83941C16.8791 8.81968 16.9777 8.74078 17.0171 8.70133C17.096 8.62243 17.1158 8.56326 17.1158 8.54353C17.096 8.50408 17.0171 8.44491 16.8593 8.44491Z" fill="white"/>
<path d="M17.4906 13.7312C17.4314 13.7312 17.392 13.7115 17.3328 13.6918C17.2144 13.6129 17.175 13.4353 17.2539 13.317C17.7865 12.5083 17.6878 11.6798 17.5892 10.8908C17.5498 10.5555 17.5103 10.2004 17.5103 9.84538C17.53 9.49033 17.5695 9.21418 17.6089 8.93803C17.6681 8.6027 17.7076 8.30683 17.6878 7.93205C17.6878 7.77425 17.8062 7.6559 17.9443 7.63618C18.1021 7.63618 18.2204 7.75453 18.2401 7.8926C18.2599 8.32655 18.2007 8.66188 18.1612 9.01693C18.1218 9.27335 18.0823 9.5495 18.0626 9.8651C18.0626 10.161 18.0823 10.4766 18.1218 10.8119C18.2204 11.6601 18.3388 12.6266 17.6878 13.6129C17.6681 13.672 17.5695 13.7312 17.4906 13.7312Z" fill="white"/>
</svg>
