<svg width="24" height="24" viewBox="0 0 24 24" fill="none" xmlns="http://www.w3.org/2000/svg">
<path fill-rule="evenodd" clip-rule="evenodd" d="M10.4905 6.42776C11.0711 5.79928 11.8792 5.40948 12.7731 5.40948C13.9613 5.40948 14.998 6.09791 15.55 7.1199C16.0298 6.89719 16.5608 6.77329 17.1195 6.77329C19.2626 6.77329 21 8.5943 21 10.8405C21 13.087 19.2626 14.908 17.1195 14.908C16.8628 14.9081 16.6068 14.8816 16.3552 14.8288C15.869 15.7298 14.9426 16.3386 13.8793 16.3386C13.4341 16.3386 13.0131 16.2318 12.6382 16.0419C12.1454 17.2463 10.9972 18.0909 9.65897 18.0909C8.26539 18.0909 7.0777 17.1747 6.6218 15.8897C6.42258 15.9337 6.21617 15.9566 6.00436 15.9566C4.34513 15.9566 3 14.5445 3 12.8024C3 11.635 3.60436 10.6156 4.5023 10.0703C4.31744 9.62829 4.21462 9.14046 4.21462 8.62759C4.21462 6.62409 5.78 5 7.71077 5C8.84436 5 9.85181 5.56002 10.4905 6.42776Z" fill="#00A1E0"/>
<path d="M8.31817 12.3636C8.99597 12.3636 9.54544 11.8142 9.54544 11.1364C9.54544 10.4585 8.99597 9.90908 8.31817 9.90908C7.64037 9.90908 7.0909 10.4585 7.0909 11.1364C7.0909 11.8142 7.64037 12.3636 8.31817 12.3636Z" fill="white"/>
<path d="M12.4091 12.3636C13.0869 12.3636 13.6364 11.8142 13.6364 11.1364C13.6364 10.4585 13.0869 9.90908 12.4091 9.90908C11.7313 9.90908 11.1818 10.4585 11.1818 11.1364C11.1818 11.8142 11.7313 12.3636 12.4091 12.3636Z" fill="white"/>
<path d="M16.5 12.3636C17.1778 12.3636 17.7273 11.8142 17.7273 11.1364C17.7273 10.4585 17.1778 9.90908 16.5 9.90908C15.8222 9.90908 15.2727 10.4585 15.2727 11.1364C15.2727 11.8142 15.8222 12.3636 16.5 12.3636Z" fill="white"/>
</svg>
