<svg width="24" height="24" viewBox="0 0 24 24" fill="none" xmlns="http://www.w3.org/2000/svg">
<path d="M18.4433 16.4766L14.666 14.1578C14.1358 13.8325 13.4574 14.0265 13.1486 14.5896C13.029 14.8121 12.9826 15.0556 13.0058 15.2934V19.8263C13.0058 20.475 13.5003 21 14.1126 21C14.7213 21 15.2176 20.4731 15.2176 19.8263V17.2203L17.3347 18.5195C17.8649 18.8467 18.545 18.6508 18.8521 18.0877C19.1573 17.5228 18.9752 16.8018 18.4433 16.4766Z" fill="#2CB5E8"/>
<path d="M8.99982 12.0025C9.00702 11.6425 8.79632 11.3071 8.45234 11.1254L4.6416 9.13253C4.47591 9.04581 4.28682 9 4.09592 9C3.70512 9 3.34133 9.1898 3.14683 9.49577C2.84428 9.96864 3.02437 10.5757 3.54844 10.8506L5.74556 11.9992L3.54844 13.1494C3.29451 13.282 3.11442 13.4947 3.03878 13.7516C2.96314 14.0068 3.00096 14.2752 3.14683 14.5042C3.34133 14.8102 3.70512 15 4.09412 15C4.28501 15 4.47591 14.9542 4.6416 14.8675L8.45234 12.8729C8.79452 12.6929 9.00342 12.3591 8.99982 12.0025Z" fill="#2CB5E8"/>
<path d="M5.55427 7.53083L9.31755 9.84174C9.75684 10.1128 10.2975 10.0237 10.6443 9.66544C10.8631 9.45122 11 9.14411 11 8.80288V4.17157C11 3.52512 10.5074 3 9.89912 3C9.29087 3 8.79645 3.52512 8.79645 4.17157V6.80666L6.65871 5.4948C6.1305 5.16873 5.45468 5.3621 5.147 5.92324C4.84288 6.48817 5.02606 7.20666 5.55427 7.53083Z" fill="#2CB5E8"/>
<path d="M14 12.1861C14 12.2678 13.9531 12.3791 13.8959 12.44L12.4399 13.8957C12.3826 13.953 12.2681 14 12.1866 14H11.8152C11.7336 14 11.6191 13.953 11.5618 13.8957L10.1041 12.44C10.0469 12.3809 10 12.2678 10 12.1861V11.8157C10 11.7322 10.0469 11.6209 10.1041 11.5617L11.5618 10.1043C11.6191 10.047 11.7336 10 11.8152 10H12.1866C12.2681 10 12.3826 10.047 12.4399 10.1043L13.8959 11.5617C13.9531 11.6191 14 11.7322 14 11.8157V12.1861ZM12.7002 12.007V11.9913C12.7002 11.9322 12.6655 11.8487 12.6239 11.8052L12.1935 11.3774C12.1518 11.3339 12.0685 11.2991 12.0078 11.2991H11.9922C11.9332 11.2991 11.8499 11.3339 11.8065 11.3774L11.3779 11.8052C11.3362 11.847 11.3015 11.9304 11.3015 11.9913V12.007C11.3015 12.0678 11.3362 12.1513 11.3779 12.193L11.8065 12.6226C11.8499 12.6643 11.9332 12.6991 11.9922 12.6991H12.0078C12.0685 12.6991 12.1518 12.6643 12.1935 12.6226L12.6239 12.193C12.6655 12.1513 12.7002 12.0696 12.7002 12.007Z" fill="#2CB5E8"/>
<path d="M14.6671 9.84152L18.4442 7.53068C18.9744 7.20652 19.1582 6.48616 18.8512 5.92504C18.5442 5.36202 17.8659 5.17056 17.3339 5.49661L15.2169 6.79136V4.17153C15.2169 3.5251 14.7224 3 14.1119 3C13.5014 3 13.0052 3.5251 13.0052 4.17153V8.70979C12.9838 8.94486 13.0284 9.1894 13.148 9.4112C13.4568 9.97421 14.1351 10.1676 14.6671 9.84152Z" fill="#2CB5E8"/>
<path d="M10.0718 14.0207C9.82111 13.9693 9.55439 14.0131 9.3179 14.1577L5.55362 16.4765C5.02552 16.8018 4.84237 17.5227 5.14821 18.0877C5.45404 18.6526 6.12973 18.8467 6.65961 18.5195L8.79691 17.2031V19.8263C8.79691 20.475 9.28945 21 9.89934 21C10.5057 21 11 20.4731 11 19.8263V15.1811C10.9982 14.5952 10.5964 14.1101 10.0718 14.0207Z" fill="#2CB5E8"/>
<path d="M20.8494 9.50443C20.5441 9.02209 19.8638 8.85644 19.3317 9.13577L15.5554 11.1138C15.1929 11.3038 14.9947 11.6514 15.0001 12.0038C14.9965 12.3562 15.1965 12.6989 15.5554 12.8856L19.3335 14.8653C19.8638 15.143 20.5423 14.9774 20.8512 14.4967C21.1583 14.0143 20.9744 13.3988 20.4441 13.1211L18.3051 12.0005L20.4441 10.88C20.9762 10.6023 21.1565 9.98513 20.8494 9.50443Z" fill="#2CB5E8"/>
</svg>
