<svg width="24" height="24" viewBox="0 0 24 24" fill="none" xmlns="http://www.w3.org/2000/svg">
<circle cx="12" cy="12" r="9" fill="#635BFF"/>
<path fill-rule="evenodd" clip-rule="evenodd" d="M15.24 13.7425C15.24 15.5873 13.809 16.637 11.6903 16.637C10.7395 16.6363 9.79907 16.4397 8.92728 16.0594V13.6183C9.78219 14.0841 10.8477 14.432 11.6903 14.432C12.2602 14.432 12.6381 14.2829 12.6381 13.8109C12.6381 12.581 8.76001 13.0406 8.76001 10.2083C8.76001 8.40078 10.1725 7.32001 12.2416 7.32001C13.0841 7.32001 13.9267 7.44423 14.7754 7.78586V10.1959C13.9911 9.78198 13.1215 9.55658 12.2354 9.53745C11.7026 9.53745 11.3433 9.69274 11.3433 10.0965C11.3433 11.2456 15.24 10.699 15.24 13.7487V13.7425Z" fill="white"/>
</svg>
