<svg width="24" height="24" viewBox="0 0 24 24" fill="none" xmlns="http://www.w3.org/2000/svg">
<path d="M11.64 9.786C11.64 10.794 10.794 11.64 9.786 11.64C8.778 11.64 7.932 10.794 7.932 9.786C7.932 8.778 8.76 7.914 9.786 7.914C10.812 7.914 11.64 8.76 11.64 9.786ZM9.786 12.36C8.76 12.36 7.932 13.206 7.932 14.214C7.932 15.222 8.76 16.086 9.786 16.086C10.812 16.086 11.64 15.24 11.64 14.214C11.64 13.188 10.794 12.36 9.786 12.36ZM21 12C21 16.986 16.986 21 12 21C7.014 21 3 16.986 3 12C3 7.014 7.014 3 12 3C16.986 3 21 7.014 21 12ZM18.606 12C18.606 8.346 15.672 5.394 12 5.394C8.328 5.394 5.394 8.346 5.394 12C5.394 15.654 8.346 18.606 12 18.606C15.654 18.606 18.606 15.654 18.606 12ZM14.214 12.36C13.206 12.36 12.36 13.206 12.36 14.214C12.36 15.222 13.206 16.068 14.214 16.068C15.222 16.068 16.086 15.24 16.086 14.214C16.086 13.188 15.24 12.36 14.214 12.36ZM14.214 7.914C13.206 7.914 12.36 8.76 12.36 9.786C12.36 10.812 13.206 11.64 14.214 11.64C15.222 11.64 16.068 10.794 16.068 9.786C16.068 8.778 15.24 7.914 14.214 7.914Z" fill="#F22F46"/>
</svg>
